<svg height="800" width="800" xmlns="http://www.w3.org/2000/svg" viewBox="0 0 490.667 490.667" xml:space="preserve"><path d="m151.467 202.645 38.72-58.091c3.264-4.907 1.941-11.52-2.965-14.784-4.928-3.264-11.541-1.941-14.784 2.965l-42.667 64a10.676 10.676 0 0 0 0 11.84l42.667 64a10.663 10.663 0 0 0 8.896 4.757c2.048 0 4.096-.576 5.888-1.813 4.907-3.264 6.229-9.877 2.965-14.784l-38.72-58.09zM269.227 106.987c-5.76-1.515-11.52 2.027-12.928 7.765l-42.667 170.667c-1.429 5.717 2.048 11.499 7.765 12.928.875.213 1.749.32 2.603.32 4.8 0 9.131-3.221 10.325-8.085l42.667-170.667c1.429-5.718-2.048-11.499-7.765-12.928zM360.875 196.757l-42.667-64c-3.264-4.907-9.877-6.229-14.784-2.965-4.907 3.264-6.229 9.877-2.965 14.784l38.72 58.091-38.72 58.091c-3.264 4.907-1.941 11.52 2.965 14.784a10.65 10.65 0 0 0 5.909 1.792c3.435 0 6.827-1.664 8.875-4.736l42.667-64a10.677 10.677 0 0 0 0-11.841z"/><path d="M437.333 0h-384C23.936 0 0 23.936 0 53.333V352c0 29.397 23.936 53.333 53.333 53.333h160v21.333h-74.667c-29.397 0-53.333 23.936-53.333 53.333 0 5.888 4.779 10.667 10.667 10.667h298.667c5.888 0 10.667-4.779 10.667-10.667 0-29.397-23.936-53.333-53.333-53.333h-74.667v-21.333h160c29.397 0 53.333-23.936 53.333-53.333V53.333C490.667 23.936 466.731 0 437.333 0zm-85.354 448c13.909 0 25.771 8.917 30.187 21.333H108.48C112.896 456.917 124.757 448 138.645 448h213.334zm-117.312-21.333v-21.333H256v21.333h-21.333zM469.333 352c0 17.643-14.357 32-32 32h-384c-17.643 0-32-14.357-32-32v-10.667h448V352zm0-32h-448V53.333c0-17.643 14.357-32 32-32h384c17.643 0 32 14.357 32 32V320z"/><path d="M439.467 85.333c-14.848 0-22.805-1.6-26.581-5.397-3.797-3.797-5.419-11.755-5.419-26.603 0-5.888-4.779-10.667-10.667-10.667s-10.667 4.779-10.667 10.667c0 14.848-1.6 22.805-5.397 26.581-3.797 3.797-11.755 5.419-26.603 5.419-5.888 0-10.667 4.779-10.667 10.667s4.779 10.667 10.667 10.667c14.848 0 22.805 1.6 26.581 5.397 3.797 3.797 5.419 11.755 5.419 26.603 0 5.888 4.779 10.667 10.667 10.667s10.667-4.779 10.667-10.667c0-14.848 1.6-22.827 5.397-26.603s11.755-5.397 26.603-5.397c5.888 0 10.667-4.779 10.667-10.667s-4.779-10.667-10.667-10.667zM140.8 130.133c-14.848 0-22.805-1.6-26.581-5.397-3.797-3.797-5.419-11.755-5.419-26.603 0-5.888-4.779-10.667-10.667-10.667s-10.667 4.779-10.667 10.667c0 14.848-1.6 22.805-5.397 26.581-3.797 3.797-11.755 5.419-26.603 5.419-5.888 0-10.667 4.779-10.667 10.667s4.779 10.667 10.667 10.667c14.848 0 22.827 1.6 26.603 5.397s5.397 11.755 5.397 26.603c0 5.888 4.779 10.667 10.667 10.667s10.667-4.779 10.667-10.667c0-14.869 1.6-22.827 5.397-26.603s11.755-5.397 26.603-5.397c5.888 0 10.667-4.779 10.667-10.667s-4.779-10.667-10.667-10.667z"/></svg>