<svg xmlns="http://www.w3.org/2000/svg" viewBox="0 0 480 480" style="enable-background:new 0 0 480 480" xml:space="preserve"><path d="M440 80H40C17.92 80.026.026 97.92 0 120v240c.026 22.08 17.92 39.974 40 40h400c22.08-.026 39.974-17.92 40-40V120c-.026-22.08-17.92-39.974-40-40zm24 280c0 13.255-10.745 24-24 24H40c-13.255 0-24-10.745-24-24V120c0-13.255 10.745-24 24-24h400c13.255 0 24 10.745 24 24v240z"/><path d="M446.856 115.88a8 8 0 0 0-10.976-2.736L260.576 218.32a39.88 39.88 0 0 1-41.152 0L44.12 113.144a8 8 0 0 0-8.24 13.712L211.2 232.04a55.897 55.897 0 0 0 57.6 0l175.32-105.184a8 8 0 0 0 2.736-10.976zM40 144a8 8 0 0 0-8 8v208a8 8 0 0 0 16 0V152a8 8 0 0 0-8-8zM440 144a8 8 0 0 0-8 8v208a8 8 0 0 0 16 0V152a8 8 0 0 0-8-8z"/></svg>